# xmcd
#
# Track frame offsets:
#	150
#	12923
#	27072
#	44456
#	59232
#	77290
#	88854
#	109477
#	129623
#	146950
#	170084
#	188873
#	203606
#	227208
#	241442
#	252579
#	271098
#	290049
#
# Disc length: 4207 seconds
#
# Revision: 1
# Processed by: cddbd v1.5.2PL0 Copyright (c) Steve Scherf et al.
# Submitted via: audiograbber 1.83.01
#
DISCID=12106d12
DTITLE=Leslie Avril - Live At The Williamstown RSL
DYEAR=2012
DGENRE=Country
TTITLE0=Hottest Ex in Texas
TTITLE1=Hold Whatcha Got
TTITLE2=Cowgirl's Heart
TTITLE3=La Musique Country
TTITLE4=Perfect World
TTITLE5=Flesh and Bone
TTITLE6=Desert Sky
TTITLE7=Crazy
TTITLE8=In Care of the Blues
TTITLE9=When Billy Came Back
TTITLE10=Sweet Nothins
TTITLE11=Love Letters
TTITLE12=I'm A Woman
TTITLE13=Rockabilly Woman
TTITLE14=Superwoman
TTITLE15=Ticking of the Clock
TTITLE16=Trashy Woman
TTITLE17=At Last
EXTD=
EXTT0=
EXTT1=
EXTT2=
EXTT3=
EXTT4=
EXTT5=
EXTT6=
EXTT7=
EXTT8=
EXTT9=
EXTT10=
EXTT11=
EXTT12=
EXTT13=
EXTT14=
EXTT15=
EXTT16=
EXTT17=
PLAYORDER=
